# xmcd
#
# Track frame offsets: 
#        150
#        22904
#        36575
#        59209
#        85998
#        109399
#        129899
#        156469
#        185406
#        200013
#        219155
#
# Disc length: 3170 seconds
#
# Revision: 0
# Processed by: cddbd v1.5.2PL0 Copyright (c) Steve Scherf et al.
# Submitted via: ExactAudioCopyFreeDBPlugin 1.0
#
DISCID=a10c600b
DTITLE=Joe Louis Walker - Everybody Wants A Piece
DYEAR=2015
DGENRE=Blues
TTITLE0=Everybody Wants A Piece
TTITLE1=Do I Love Her
TTITLE2=Buzz On You
TTITLE3=Black and Blue
TTITLE4=Witchcraft
TTITLE5=One Sunny Day
TTITLE6=Gospel Blues
TTITLE7=Wade In The Water
TTITLE8=Man Of Many Words
TTITLE9=Young Girls Blues
TTITLE10=35 Years
EXTD=
EXTT0=
EXTT1=
EXTT2=
EXTT3=
EXTT4=
EXTT5=
EXTT6=
EXTT7=
EXTT8=
EXTT9=
EXTT10=
PLAYORDER=
